<svg width="39" height="40" viewBox="0 0 39 40" fill="none" xmlns="http://www.w3.org/2000/svg">
<path d="M25.2 20C25.2 21.5913 24.5679 23.1175 23.4426 24.2427C22.3174 25.3679 20.7913 26 19.2 26C17.6087 26 16.0826 25.3679 14.9574 24.2427C13.8321 23.1175 13.2 21.5913 13.2 20C13.2 19.658 13.236 19.324 13.298 19H11.2V26.994C11.2 27.55 11.65 28 12.206 28H26.196C26.4625 27.9995 26.7178 27.8933 26.9061 27.7047C27.0943 27.5161 27.2 27.2605 27.2 26.994V19H25.102C25.164 19.324 25.2 19.658 25.2 20V20ZM19.2 24C19.7254 23.9999 20.2457 23.8963 20.731 23.6951C21.2164 23.4939 21.6574 23.1991 22.0288 22.8275C22.4003 22.4559 22.6949 22.0147 22.8958 21.5292C23.0968 21.0438 23.2001 20.5235 23.2 19.998C23.1999 19.4726 23.0962 18.9524 22.8951 18.467C22.6939 17.9816 22.399 17.5406 22.0274 17.1692C21.6558 16.7978 21.2147 16.5032 20.7292 16.3022C20.2437 16.1013 19.7234 15.9979 19.198 15.998C18.1369 15.9983 17.1193 16.4201 16.3692 17.1706C15.619 17.9211 15.1977 18.9389 15.198 20C15.1983 21.0612 15.6201 22.0787 16.3706 22.8289C17.1211 23.579 18.1389 24.0003 19.2 24V24ZM24 15.8H26.398C26.5573 15.8 26.7101 15.7369 26.823 15.6244C26.9358 15.512 26.9995 15.3594 27 15.2V12.802C27 12.6424 26.9366 12.4893 26.8237 12.3764C26.7108 12.2635 26.5577 12.2 26.398 12.2H24C23.8403 12.2 23.6872 12.2635 23.5743 12.3764C23.4614 12.4893 23.398 12.6424 23.398 12.802V15.2C23.4 15.53 23.67 15.8 24 15.8V15.8ZM19.2 0.800049C14.1078 0.800049 9.22425 2.8229 5.62355 6.4236C2.02285 10.0243 0 14.9079 0 20C0 25.0922 2.02285 29.9758 5.62355 33.5765C9.22425 37.1772 14.1078 39.2001 19.2 39.2001C21.7214 39.2001 24.2181 38.7034 26.5475 37.7385C28.877 36.7736 30.9936 35.3594 32.7765 33.5765C34.5593 31.7936 35.9736 29.677 36.9385 27.3476C37.9034 25.0181 38.4 22.5214 38.4 20C38.4 17.4787 37.9034 14.982 36.9385 12.6525C35.9736 10.3231 34.5593 8.20648 32.7765 6.4236C30.9936 4.64071 28.877 3.22645 26.5475 2.26156C24.2181 1.29667 21.7214 0.800049 19.2 0.800049V0.800049ZM29.2 27.778C29.2 29 28.2 30 26.978 30H11.422C10.2 30 9.2 29 9.2 27.778V12.222C9.2 11 10.2 10 11.422 10H26.978C28.2 10 29.2 11 29.2 12.222V27.778V27.778Z" fill="url(#paint0_linear_302_3)"/>
<defs>
<linearGradient id="paint0_linear_302_3" x1="32.5" y1="1" x2="8" y2="30" gradientUnits="userSpaceOnUse">
<stop stop-color="#515BD4"/>
<stop offset="0.339021" stop-color="#8134AF"/>
<stop offset="0.603377" stop-color="#DD2A7B"/>
<stop offset="0.814482" stop-color="#F58529"/>
<stop offset="1" stop-color="#FEDA77"/>
</linearGradient>
</defs>
</svg>
