<svg width="101" height="101" viewBox="0 0 101 101" fill="none" xmlns="http://www.w3.org/2000/svg">
<path d="M39.5141 85.6369C43.4891 87.8629 47.4041 88.9809 51.0511 88.9809C54.1041 88.9799 56.9691 88.1959 59.5191 86.6219L68.9181 80.8239C69.2571 80.6149 69.4991 80.2809 69.5911 79.8929C69.6831 79.5059 69.6161 79.0979 69.4071 78.7589L61.2601 65.5549C61.0511 65.2169 60.7161 64.9749 60.3291 64.8829C59.9391 64.7919 59.5331 64.8579 59.1951 65.0669L49.7251 70.9119C48.2691 71.8099 46.4011 72.0969 44.6041 71.7019C42.8071 71.3059 41.2731 70.2639 40.3951 68.8399L27.5241 47.9809C25.6631 44.9649 26.6011 40.9969 29.6151 39.1359L29.6161 39.1349L39.4451 33.0669C40.1501 32.6319 40.3681 31.7079 39.9331 31.0029L31.7851 17.8019C31.3501 17.0969 30.4251 16.8759 29.7211 17.3129L19.9001 23.3749C8.95411 30.1309 9.33811 47.8659 20.8361 66.5039C26.1071 75.0499 32.7411 81.8449 39.5141 85.6369ZM21.4771 25.9269L30.0211 20.6539L36.5941 31.3019L28.0411 36.5819C28.0391 36.5829 28.0371 36.5849 28.0371 36.5849C23.6191 39.3159 22.2431 45.1329 24.9721 49.5549L37.8431 70.4129C39.1441 72.5239 41.3741 74.0609 43.9601 74.6309C46.5111 75.1899 49.1881 74.7669 51.3011 73.4629L59.4941 68.4059L66.0661 79.0559L57.9431 84.0669C52.0111 87.7269 45.4441 85.5169 40.9801 83.0179C34.6451 79.4699 28.3971 73.0459 23.3891 64.9279C12.8191 47.7939 12.0331 31.7559 21.4771 25.9269Z" fill="white"/>
<path d="M49.5796 33.5521C54.4336 33.8391 58.7296 36.3331 61.3676 40.3961C63.8896 44.2681 64.4966 49.0131 63.0316 53.4151C62.7696 54.2011 63.1946 55.0511 63.9806 55.3111C64.1376 55.3641 64.2966 55.3881 64.4546 55.3881C65.0836 55.3881 65.6686 54.9911 65.8776 54.3621C67.6336 49.0881 66.9056 43.4001 63.8826 38.7601C60.7686 33.9621 55.4866 30.8951 49.7566 30.5561C48.9216 30.5211 48.2196 31.1381 48.1706 31.9651C48.1216 32.7931 48.7526 33.5031 49.5796 33.5521Z" fill="white"/>
<path d="M51.6796 22.4178C59.5396 23.3208 66.5166 27.6338 70.8216 34.2488C74.9926 40.6618 76.1746 48.5578 74.0636 55.9128C73.8346 56.7098 74.2946 57.5398 75.0906 57.7678C75.2296 57.8078 75.3676 57.8268 75.5056 57.8268C76.1566 57.8268 76.7576 57.3978 76.9456 56.7408C79.2966 48.5498 77.9806 39.7548 73.3356 32.6128C68.5416 25.2458 60.7736 20.4438 52.0216 19.4378C51.2146 19.3428 50.4556 19.9338 50.3606 20.7568C50.2656 21.5798 50.8556 22.3228 51.6796 22.4178Z" fill="white"/>
<path d="M53.7312 12.6119C64.1702 14.0629 73.4522 19.9629 79.1982 28.7999C84.8272 37.4469 86.5152 48.1269 83.8312 58.1009C83.6152 58.9009 84.0902 59.7239 84.8902 59.9389C85.0202 59.9739 85.1522 59.9909 85.2812 59.9909C85.9422 59.9909 86.5492 59.5509 86.7282 58.8809C89.6342 48.0849 87.8062 36.5239 81.7132 27.1639C75.4932 17.5989 65.4452 11.2119 54.1462 9.64085C53.3292 9.53185 52.5672 10.0989 52.4542 10.9199C52.3392 11.7399 52.9112 12.4979 53.7312 12.6119Z" fill="white"/>
</svg>
